<svg xmlns="http://www.w3.org/2000/svg" width="21" height="21" viewBox="0 0 21 21" fill="none">
  <path d="M18.7494 15.1062V5.89385C19.2611 5.7627 19.7291 5.49848 20.1057 5.128C20.4823 4.75751 20.7542 4.29397 20.8937 3.78443C21.0332 3.27489 21.0354 2.73751 20.9001 2.22684C20.7648 1.71618 20.4967 1.25042 20.1231 0.876856C19.7496 0.503295 19.2838 0.235238 18.7732 0.0999015C18.2625 -0.0354348 17.7251 -0.0332296 17.2156 0.106293C16.706 0.245816 16.2425 0.517687 15.872 0.894301C15.5015 1.27092 15.2373 1.73886 15.1062 2.25062H5.89385C5.7627 1.73886 5.49848 1.27092 5.128 0.894301C4.75751 0.517687 4.29397 0.245816 3.78443 0.106293C3.27489 -0.0332296 2.73751 -0.0354348 2.22684 0.0999015C1.71618 0.235238 1.25042 0.503295 0.876856 0.876856C0.503295 1.25042 0.235238 1.71618 0.0999015 2.22684C-0.0354348 2.73751 -0.0332296 3.27489 0.106293 3.78443C0.245816 4.29397 0.517687 4.75751 0.894302 5.128C1.27092 5.49848 1.73886 5.7627 2.25062 5.89385V15.1062C1.73886 15.2373 1.27092 15.5015 0.894302 15.872C0.517687 16.2425 0.245816 16.706 0.106293 17.2156C-0.0332296 17.7251 -0.0354348 18.2625 0.0999015 18.7732C0.235238 19.2838 0.503295 19.7496 0.876856 20.1231C1.25042 20.4967 1.71618 20.7648 2.22684 20.9001C2.73751 21.0354 3.27489 21.0332 3.78443 20.8937C4.29397 20.7542 4.75751 20.4823 5.128 20.1057C5.49848 19.7291 5.7627 19.2611 5.89385 18.7494H15.1062C15.2373 19.2611 15.5015 19.7291 15.872 20.1057C16.2425 20.4823 16.706 20.7542 17.2156 20.8937C17.7251 21.0332 18.2625 21.0354 18.7732 20.9001C19.2838 20.7648 19.7496 20.4967 20.1231 20.1231C20.4967 19.7496 20.7648 19.2838 20.9001 18.7732C21.0354 18.2625 21.0332 17.7251 20.8937 17.2156C20.7542 16.706 20.4823 16.2425 20.1057 15.872C19.7291 15.5015 19.2611 15.2373 18.7494 15.1062ZM17.9994 1.50068C18.2961 1.50068 18.5861 1.58864 18.8327 1.75345C19.0794 1.91826 19.2716 2.15251 19.3852 2.42658C19.4987 2.70065 19.5284 3.00223 19.4705 3.29318C19.4126 3.58413 19.2698 3.85138 19.06 4.06114C18.8503 4.27091 18.583 4.41376 18.292 4.47163C18.0011 4.5295 17.6995 4.4998 17.4255 4.38628C17.1514 4.27276 16.9171 4.08051 16.7523 3.83386C16.5875 3.5872 16.4995 3.29721 16.4995 3.00056C16.4999 2.60289 16.6581 2.22162 16.9393 1.94042C17.2205 1.65922 17.6018 1.50107 17.9994 1.50068ZM1.50068 3.00056C1.50068 2.70391 1.58864 2.41393 1.75345 2.16727C1.91826 1.92061 2.15251 1.72837 2.42658 1.61485C2.70065 1.50132 3.00223 1.47162 3.29318 1.5295C3.58413 1.58737 3.85138 1.73022 4.06114 1.93998C4.27091 2.14974 4.41376 2.417 4.47163 2.70795C4.5295 2.9989 4.4998 3.30048 4.38628 3.57454C4.27276 3.84861 4.08051 4.08286 3.83386 4.24767C3.5872 4.41248 3.29721 4.50045 3.00056 4.50045C2.60289 4.50005 2.22162 4.3419 1.94042 4.0607C1.65922 3.77951 1.50107 3.39824 1.50068 3.00056ZM3.00056 19.4993C2.70391 19.4993 2.41393 19.4114 2.16727 19.2465C1.92062 19.0817 1.72837 18.8475 1.61485 18.5734C1.50132 18.2993 1.47162 17.9978 1.5295 17.7068C1.58737 17.4159 1.73022 17.1486 1.93998 16.9389C2.14975 16.7291 2.417 16.5862 2.70795 16.5284C2.9989 16.4705 3.30048 16.5002 3.57454 16.6137C3.84861 16.7272 4.08286 16.9195 4.24767 17.1661C4.41248 17.4128 4.50045 17.7028 4.50045 17.9994C4.50005 18.3971 4.3419 18.7784 4.0607 19.0596C3.77951 19.3408 3.39824 19.4989 3.00056 19.4993ZM15.1062 17.2495H5.89385C5.75951 16.7339 5.49007 16.2634 5.11331 15.8867C4.73655 15.5099 4.26611 15.2405 3.75051 15.1062V5.89385C4.26608 5.75944 4.73648 5.48997 5.11323 5.11323C5.48997 4.73648 5.75944 4.26608 5.89385 3.75051H15.1062C15.2405 4.26611 15.5099 4.73655 15.8867 5.11331C16.2634 5.49007 16.7339 5.75951 17.2495 5.89385V15.1062C16.7339 15.2404 16.2634 15.5098 15.8866 15.8866C15.5098 16.2634 15.2404 16.7339 15.1062 17.2495ZM17.9994 19.4993C17.7028 19.4993 17.4128 19.4114 17.1661 19.2465C16.9195 19.0817 16.7272 18.8475 16.6137 18.5734C16.5002 18.2993 16.4705 17.9978 16.5284 17.7068C16.5862 17.4159 16.7291 17.1486 16.9389 16.9389C17.1486 16.7291 17.4159 16.5862 17.7068 16.5284C17.9978 16.4705 18.2994 16.5002 18.5734 16.6137C18.8475 16.7272 19.0817 16.9195 19.2465 17.1661C19.4114 17.4128 19.4993 17.7028 19.4993 17.9994C19.4987 18.397 19.3405 18.7782 19.0594 19.0594C18.7782 19.3405 18.397 19.4987 17.9994 19.4993Z" fill="black"/>
</svg>