<svg xmlns="http://www.w3.org/2000/svg" width="57" height="56" viewBox="0 0 57 56" fill="none">
  <path d="M25.2619 1.23264C24.4539 2.02215 24 3.0928 24 4.20915C24 5.32551 24.4539 6.39616 25.2619 7.18566L46.5965 28.0254L25.2619 48.8652C24.4768 49.6592 24.0424 50.7227 24.0522 51.8265C24.062 52.9304 24.5153 53.9863 25.3144 54.7669C26.1135 55.5475 27.1945 55.9902 28.3246 55.9998C29.4547 56.0094 30.5434 55.5851 31.3563 54.8182L55.7381 31.0019C56.5461 30.2124 57 29.1418 57 28.0254C57 26.9091 56.5461 25.8384 55.7381 25.0489L31.3563 1.23265C30.548 0.443382 29.452 -1.20416e-06 28.3091 -1.25412e-06C27.1662 -1.30408e-06 26.0702 0.443382 25.2619 1.23264Z" fill="white"/>
  <path d="M1.26192 1.23264C0.453915 2.02215 3.67951e-06 3.0928 3.63071e-06 4.20915C3.58191e-06 5.32551 0.453914 6.39616 1.26192 7.18566L22.5965 28.0254L1.26192 48.8652C0.476812 49.6592 0.0423867 50.7227 0.0522057 51.8265C0.0620285 52.9304 0.515306 53.9863 1.31442 54.7669C2.11353 55.5475 3.19454 55.9902 4.32461 55.9998C5.45469 56.0094 6.54341 55.5851 7.35629 54.8182L31.7381 31.0019C32.5461 30.2124 33 29.1418 33 28.0254C33 26.9091 32.5461 25.8384 31.7381 25.0489L7.35629 1.23265C6.54804 0.443382 5.45197 -1.20416e-06 4.3091 -1.25412e-06C3.16624 -1.30408e-06 2.07017 0.443382 1.26192 1.23264Z" fill="white"/>
</svg>