<svg xmlns="http://www.w3.org/2000/svg" width="54" height="54" viewBox="0 0 54 54" fill="none">
  <path d="M49.8462 29.0769V48.8077C49.8462 50.1848 49.2991 51.5055 48.3254 52.4792C47.3516 53.453 46.0309 54 44.6538 54H5.19231C3.81522 54 2.49454 53.453 1.52079 52.4792C0.547045 51.5055 0 50.1848 0 48.8077V9.34615C0 7.96907 0.547045 6.64838 1.52079 5.67464C2.49454 4.70089 3.81522 4.15385 5.19231 4.15385H24.9231C25.7493 4.15385 26.5417 4.48207 27.126 5.06632C27.7102 5.65057 28.0385 6.44298 28.0385 7.26923C28.0385 8.09548 27.7102 8.88789 27.126 9.47214C26.5417 10.0564 25.7493 10.3846 24.9231 10.3846H6.23077V47.7692H43.6154V29.0769C43.6154 28.2507 43.9436 27.4583 44.5279 26.874C45.1121 26.2898 45.9045 25.9615 46.7308 25.9615C47.557 25.9615 48.3494 26.2898 48.9337 26.874C49.5179 27.4583 49.8462 28.2507 49.8462 29.0769ZM54 10.3846C54 12.4385 53.391 14.4463 52.2499 16.154C51.1088 17.8617 49.4869 19.1928 47.5894 19.9788C45.6919 20.7647 43.6039 20.9704 41.5894 20.5697C39.575 20.169 37.7247 19.18 36.2724 17.7276C34.82 16.2753 33.831 14.425 33.4303 12.4106C33.0296 10.3961 33.2353 8.30814 34.0213 6.41059C34.8072 4.51305 36.1383 2.8912 37.846 1.75012C39.5537 0.609047 41.5615 0 43.6154 0C46.3696 0 49.0109 1.09409 50.9584 3.04158C52.9059 4.98908 54 7.63044 54 10.3846ZM47.7692 10.3846C47.7692 9.56306 47.5256 8.75996 47.0692 8.07686C46.6128 7.39377 45.964 6.86136 45.205 6.54696C44.446 6.23257 43.6108 6.15031 42.805 6.31058C41.9992 6.47086 41.2591 6.86648 40.6782 7.4474C40.0972 8.02833 39.7016 8.76847 39.5414 9.57424C39.3811 10.38 39.4633 11.2152 39.7777 11.9742C40.0921 12.7332 40.6245 13.382 41.3076 13.8384C41.9907 14.2948 42.7938 14.5385 43.6154 14.5385C44.7171 14.5385 45.7736 14.1008 46.5526 13.3218C47.3316 12.5428 47.7692 11.4863 47.7692 10.3846Z" fill="#852472"/>
</svg>